<svg xmlns="http://www.w3.org/2000/svg" width="220" height="41" fill="none"><g clip-path="url(#a)"><path fill="#fff" d="M27.659 30.189a153.653 153.653 0 0 1-14.229 0 3.118 3.118 0 0 1-2.097-.907l-.003-.003-.004-.003a3.118 3.118 0 0 1-.906-2.095 48.017 48.017 0 0 1-.07-1.535l-.01-.305h2.52l.009.287c.015.482.039.957.07 1.424.01.167.07.306.178.427.118.116.259.18.437.19a149.05 149.05 0 0 0 13.981 0 .57.57 0 0 0 .409-.185l.005-.005.004-.005a.632.632 0 0 0 .197-.42c.073-1.403.118-2.827.137-4.272H16.816V20.263h11.471c-.019-1.431-.064-2.855-.137-4.272a.632.632 0 0 0-.197-.42l-.004-.005-.005-.005a.493.493 0 0 0-.393-.162h-.014a149.013 149.013 0 0 0-13.986 0h-.014a.567.567 0 0 0-.42.167.684.684 0 0 0-.178.427c-.031.467-.055.941-.07 1.424l-.01.286H10.34l.01-.304c.015-.52.039-1.031.07-1.535.036-.81.34-1.506.91-2.075l.003-.003a3.117 3.117 0 0 1 2.097-.906 153.653 153.653 0 0 1 14.229 0 3.031 3.031 0 0 1 2.075.907c.585.57.9 1.267.934 2.079.189 3.77.189 7.542 0 11.313m-3.01 3.01-.013-.296.014.296Zm0 0a3.031 3.031 0 0 0 2.077-.91 3.073 3.073 0 0 0 .933-2.1m0 0-.295-.013.295.014Z"/><path stroke="#fff" d="M27.659 30.189a153.653 153.653 0 0 1-14.229 0 3.118 3.118 0 0 1-2.097-.907l-.003-.003-.004-.003a3.118 3.118 0 0 1-.906-2.095 48.017 48.017 0 0 1-.07-1.535l-.01-.305h2.52l.009.287c.015.482.039.957.07 1.424.01.167.07.306.178.427.118.116.259.18.437.19a149.05 149.05 0 0 0 13.981 0 .57.57 0 0 0 .409-.185l.005-.005.004-.005a.632.632 0 0 0 .197-.42c.073-1.403.118-2.827.137-4.272H16.816V20.263h11.471c-.019-1.431-.064-2.855-.137-4.272a.632.632 0 0 0-.197-.42l-.004-.005-.005-.005a.493.493 0 0 0-.393-.162h-.014a149.013 149.013 0 0 0-13.986 0h-.014a.567.567 0 0 0-.42.167.684.684 0 0 0-.178.427c-.031.467-.055.941-.07 1.424l-.01.286H10.34l.01-.304c.015-.52.039-1.031.07-1.535.036-.81.34-1.506.91-2.075l.003-.003a3.117 3.117 0 0 1 2.097-.906 153.653 153.653 0 0 1 14.229 0 3.031 3.031 0 0 1 2.075.907c.585.57.9 1.267.934 2.079.189 3.77.189 7.542 0 11.313m-3.01 3.01-.013-.296.014.296Zm0 0Zm0 0a3.031 3.031 0 0 0 2.077-.91 3.073 3.073 0 0 0 .933-2.1m0 0-.295-.013.295.014Z"/><path fill="#fff" fill-rule="evenodd" d="M77.636 13.024h3.111v9.632a150.093 150.093 0 0 1-.142 4.554v.002-.004.002a3.368 3.368 0 0 1-1.019 2.296 3.327 3.327 0 0 1-2.273.995h.001-.002.001c-2.376.11-4.752.166-7.127.166-2.048 0-4.26-.056-6.634-.166h-.001.002a3.415 3.415 0 0 1-2.291-.989l-.006-.006-.007-.006a3.414 3.414 0 0 1-.989-2.285v.006-.013.007a44.2 44.2 0 0 1-.071-1.543l-.018-.609h3.11l.019.573c.015.48.038.95.069 1.414v.002a.424.424 0 0 0 .088.253s-.015-.012-.021-.019l.04.04-.02-.021a.424.424 0 0 0 .244.087h.01-.005c2.326.11 4.486.164 6.48.164a148.61 148.61 0 0 0 6.97-.164h.01-.005c.124-.008.185-.046.226-.086a.36.36 0 0 0 .11-.252v.003-.005.002c.04-.775.077-1.991.106-3.653H63.53a3.41 3.41 0 0 1-2.291-.99l-.007-.006-.006-.007a3.513 3.513 0 0 1-1.012-2.278l-.002-.02v-7.076h3.135v6.964c0 .093.024.152.076.207l-.011-.01.01.01.01.01-.01-.01a.385.385 0 0 0 .227.095l.015.001h-.015 13.987v-7.267Zm9.721 0h17.234v17.643h-3.111V16.159H87.47a.247.247 0 0 0-.193.085.34.34 0 0 0-.11.215l.025 2.447v8.46l-.002.02a3.515 3.515 0 0 1-1.012 2.278l-.003.003-.004.003a3.326 3.326 0 0 1-2.274.996h-1.039v-3.11h.896a.338.338 0 0 0 .217-.11.247.247 0 0 0 .086-.192v-10.93l.001-.018a3.42 3.42 0 0 1 1.019-2.262 3.42 3.42 0 0 1 2.261-1.018l.02-.002Zm37.724 6.278.013.001a3.329 3.329 0 0 1 2.271.993 3.311 3.311 0 0 1 1.022 2.3v4.777a3.37 3.37 0 0 1-1.019 2.297 3.327 3.327 0 0 1-2.274.996H107.853V13.025h3.111v6.278h14.117Zm.097 3.23-.01-.01a.342.342 0 0 0-.217-.108l-13.987.022v5.12h13.986a.34.34 0 0 0 .218-.11c.07-.07.1-.136.108-.216v-4.493c-.009-.1-.041-.153-.088-.195l-.01-.01Zm27.605-9.52-12.974 8.834 12.954 8.82h-5.534l-10.675-7.265h-2.542v7.266h-3.111V13.048h3.111v7.242h2.542l10.65-7.24 5.579-.039Zm52.19.012h4.381v17.643h-3.134V17.334l-7.023 13.333h-2.641l-7.047-13.337v13.337h-3.111V13.024h4.381l7.097 13.456 7.097-13.456Z" clip-rule="evenodd"/><path fill="#fff" d="M52.876 13.024h4.381v17.643h-3.134V17.334L47.1 30.667H44.46L37.412 17.33v13.337H34.3V13.024h4.381l7.097 13.456 7.097-13.456Z"/><path fill="#fff" fill-rule="evenodd" d="M168.126 0s-13.403 10.929-12.462 20.841c0 6.151 5.911 11.137 12.462 11.137 6.552 0 12.462-4.986 12.462-11.137C181.529 10.93 168.126 0 168.126 0Zm0 29.157c5.324 0 9.64-4.317 9.64-9.64 0-5.325-4.316-9.641-9.64-9.641-5.324 0-9.64 4.316-9.64 9.64 0 5.324 4.316 9.64 9.64 9.64Z" clip-rule="evenodd"/><path fill="#fff" fill-rule="evenodd" d="M158.508 3.292H.005v36.923h219.858V3.292h-42.118l1.623 2.351h38.143v32.22H2.357V5.644h154.527l1.624-2.351Z" clip-rule="evenodd"/></g><defs><clipPath id="a"><path fill="#fff" d="M0 0h220v40.215H0z"/></clipPath></defs></svg>