<svg xmlns="http://www.w3.org/2000/svg" width="32" height="32" fill="none"><rect width="32" height="32" fill="url(#a)" rx="16"/><path fill="#fff" fill-rule="evenodd" d="M7.243 15.831c4.664-2.032 7.774-3.372 9.33-4.019 4.444-1.848 5.367-2.17 5.969-2.18.132-.002.428.03.62.186a.674.674 0 0 1 .228.434c.021.124.048.408.026.63-.24 2.53-1.282 8.669-1.812 11.503-.224 1.199-.666 1.6-1.094 1.64-.929.085-1.634-.614-2.534-1.204-1.409-.923-2.204-1.498-3.571-2.399-1.58-1.04-.556-1.613.345-2.548.235-.244 4.33-3.968 4.408-4.306.01-.042.02-.2-.074-.283-.094-.083-.232-.055-.331-.032-.142.032-2.391 1.52-6.75 4.46-.638.44-1.216.653-1.734.642-.572-.013-1.67-.323-2.488-.589-1.002-.325-1.798-.498-1.729-1.05.037-.289.433-.584 1.19-.885Z" clip-rule="evenodd"/><defs><linearGradient id="a" x1="16" x2="16" y1="0" y2="31.763" gradientUnits="userSpaceOnUse"><stop stop-color="#2AABEE"/><stop offset="1" stop-color="#229ED9"/></linearGradient></defs></svg>