<svg xmlns="http://www.w3.org/2000/svg" width="32" height="32" fill="none"><rect width="32" height="32" fill="url(#a)" rx="16"/><path fill="#fff" d="m6.295 25.309 1.372-4.982a9.525 9.525 0 0 1-1.289-4.811c0-5.305 4.338-9.618 9.664-9.618a9.614 9.614 0 0 1 6.836 2.818 9.514 9.514 0 0 1 2.827 6.804c0 5.305-4.338 9.618-9.668 9.618h-.005a9.708 9.708 0 0 1-4.62-1.172L6.295 25.31Zm5.362-3.082.292.176a8.084 8.084 0 0 0 4.088 1.116h.005c4.426 0 8.032-3.584 8.032-7.994a7.937 7.937 0 0 0-2.35-5.655 7.99 7.99 0 0 0-5.682-2.344c-4.427-.004-8.032 3.58-8.032 7.99 0 1.508.421 2.98 1.228 4.253l.19.304-.811 2.948 3.04-.794Z"/><path fill="url(#b)" d="m6.633 24.972 1.326-4.811a9.208 9.208 0 0 1-1.252-4.64c.005-5.12 4.19-9.286 9.335-9.286 2.498 0 4.838.968 6.6 2.721a9.206 9.206 0 0 1 2.73 6.569c0 5.12-4.19 9.286-9.33 9.286h-.005a9.37 9.37 0 0 1-4.459-1.13l-4.945 1.291Z"/><path fill="url(#c)" d="m6.295 25.309 1.372-4.982a9.525 9.525 0 0 1-1.289-4.811c0-5.305 4.338-9.618 9.664-9.618a9.614 9.614 0 0 1 6.836 2.818 9.514 9.514 0 0 1 2.827 6.804c0 5.305-4.338 9.618-9.668 9.618h-.005a9.708 9.708 0 0 1-4.62-1.172L6.295 25.31Zm5.362-3.082.292.176a8.084 8.084 0 0 0 4.088 1.116h.005c4.426 0 8.032-3.584 8.032-7.994a7.937 7.937 0 0 0-2.35-5.655 7.99 7.99 0 0 0-5.682-2.344c-4.427-.004-8.032 3.58-8.032 7.99 0 1.508.421 2.98 1.228 4.253l.19.304-.811 2.948 3.04-.794Z"/><path fill="#fff" fill-rule="evenodd" d="M13.627 11.493c-.18-.401-.37-.41-.542-.415-.14-.005-.302-.005-.464-.005a.89.89 0 0 0-.644.3c-.223.24-.844.821-.844 2.007 0 1.18.867 2.325.988 2.486.12.162 1.673 2.666 4.125 3.63 2.039.803 2.456.642 2.896.6.44-.041 1.428-.581 1.632-1.144.2-.563.2-1.042.139-1.144-.06-.101-.223-.161-.464-.281-.24-.12-1.427-.701-1.65-.784-.222-.079-.384-.12-.542.12-.162.24-.626.78-.765.94-.139.162-.282.18-.523.06-.241-.12-1.02-.373-1.942-1.194-.719-.637-1.205-1.426-1.344-1.665-.14-.24-.014-.37.106-.49.107-.105.241-.28.362-.42.12-.137.162-.239.24-.4.08-.162.042-.3-.018-.42-.06-.115-.533-1.306-.746-1.78Z" clip-rule="evenodd"/><defs><linearGradient id="a" x1="15.999" x2="15.999" y1="31.998" y2="-.001" gradientUnits="userSpaceOnUse"><stop stop-color="#20B038"/><stop offset="1" stop-color="#60D66A"/></linearGradient><linearGradient id="b" x1="16.002" x2="16.002" y1="24.971" y2="6.234" gradientUnits="userSpaceOnUse"><stop stop-color="#20B038"/><stop offset="1" stop-color="#60D66A"/></linearGradient><linearGradient id="c" x1="16.002" x2="16.002" y1="25.307" y2="5.898" gradientUnits="userSpaceOnUse"><stop stop-color="#F9F9F9"/><stop offset="1" stop-color="#fff"/></linearGradient></defs></svg>